<svg width="34" height="33" viewBox="0 0 34 33" fill="none" xmlns="http://www.w3.org/2000/svg">
<path d="M6.02083 0H27.9792C31.3083 0 34 2.67949 34 5.99359V27.0064C34 30.3205 31.3083 33 27.9792 33H6.02083C2.69167 33 0 30.3205 0 27.0064V5.99359C0 2.67949 2.69167 0 6.02083 0Z" fill="#00005B"/>
<path d="M13.6566 19.7436H8.38657L7.30991 23.0718C7.28157 23.1987 7.16824 23.2833 7.04074 23.2692H4.37741C4.22158 23.2692 4.17908 23.1846 4.22158 23.0154L8.78324 9.99872C8.82574 9.8577 8.86824 9.73077 8.92491 9.56154C8.98157 9.26539 9.00991 8.95513 9.00991 8.64487C8.99574 8.57436 9.05241 8.50385 9.12324 8.48975C9.13741 8.48975 9.15157 8.48975 9.16574 8.48975H12.7924C12.8916 8.48975 12.9624 8.53205 12.9766 8.60257L18.1474 23.0577C18.1899 23.2128 18.1474 23.2833 18.0057 23.2833H15.0449C14.9457 23.2974 14.8466 23.2269 14.8182 23.1282L13.6566 19.7436ZM9.20824 16.9372H12.8066C12.7216 16.641 12.6082 16.2885 12.4807 15.9218C12.3532 15.541 12.2257 15.1321 12.0982 14.709C11.9566 14.2718 11.8291 13.8487 11.6874 13.4115C11.5457 12.9744 11.4182 12.5654 11.3049 12.1564C11.1916 11.7615 11.0924 11.3949 10.9932 11.0564H10.9649C10.8374 11.6628 10.6816 12.2692 10.4832 12.8756C10.2707 13.5526 10.0582 14.2577 9.83157 14.9628C9.64741 15.6821 9.42074 16.3449 9.20824 16.9372ZM26.5482 18.4462H22.0574C22.1141 18.8833 22.2557 19.3205 22.4966 19.7013C22.7516 20.0821 23.1057 20.3782 23.5307 20.5474C24.0974 20.7872 24.7207 20.9141 25.3441 20.9C25.8399 20.8859 26.3357 20.8436 26.8174 20.7449C27.2566 20.6885 27.6816 20.5756 28.0782 20.4205C28.1491 20.3641 28.1916 20.3923 28.1916 20.5333V22.691C28.1916 22.7474 28.1774 22.8039 28.1632 22.8603C28.1349 22.9026 28.1066 22.9308 28.0641 22.959C27.6107 23.1564 27.1432 23.2974 26.6474 23.3821C25.9816 23.509 25.3157 23.5654 24.6357 23.5513C23.5591 23.5513 22.6524 23.3821 21.9157 23.0577C21.2216 22.7615 20.6124 22.2962 20.1307 21.718C19.6774 21.168 19.3516 20.5474 19.1532 19.8705C18.9549 19.2077 18.8557 18.5167 18.8557 17.8115C18.8557 17.05 18.9691 16.3026 19.2099 15.5692C19.4366 14.8641 19.7907 14.2154 20.2724 13.6372C20.7399 13.0731 21.3207 12.6218 21.9866 12.2974C22.6524 11.9731 23.4457 11.8603 24.3524 11.8603C25.1032 11.8462 25.8541 11.9872 26.5482 12.2974C27.1291 12.5513 27.6391 12.9321 28.0357 13.4256C28.4041 13.9051 28.7016 14.441 28.8857 15.0333C29.0699 15.5974 29.1549 16.1756 29.1549 16.7539C29.1549 17.0923 29.1407 17.3885 29.1266 17.6564C29.0982 17.9244 29.0841 18.1218 29.0699 18.2487C29.0557 18.3474 28.9707 18.4321 28.8716 18.4321C28.7866 18.4321 28.6307 18.4462 28.4041 18.4603C28.1774 18.4885 27.9082 18.5026 27.5824 18.5026C27.2566 18.5026 26.9166 18.4462 26.5482 18.4462ZM22.0574 16.3872H25.0466C25.4149 16.3872 25.6841 16.3872 25.8541 16.3731C25.9674 16.359 26.0807 16.3308 26.1799 16.2603V16.1192C26.1799 15.9359 26.1516 15.7667 26.0949 15.5974C25.8399 14.8077 25.0891 14.2718 24.2532 14.3C23.4741 14.2577 22.7374 14.6667 22.3691 15.3718C22.1991 15.6962 22.0999 16.0346 22.0574 16.3872Z" fill="#9999FF"/>
</svg>
