<svg width="14" height="14" viewBox="0 0 14 14" fill="none" xmlns="http://www.w3.org/2000/svg">
<path d="M0.222168 2.27644C0.222168 1.3358 0.984649 0.573406 1.92518 0.573406H11.7267C12.6674 0.573406 13.4298 1.3359 13.4298 2.27644V12.0782C13.4298 13.0189 12.6673 13.7812 11.7268 13.7812H1.92523C0.984546 13.7812 0.222168 13.0188 0.222168 12.0782V2.2765V2.27644Z" fill="#563D7C"/>
<path d="M5.69899 7.93838V9.80868H7.34536C7.5022 9.80868 7.65337 9.79563 7.79896 9.76947C7.94456 9.74337 8.07338 9.69673 8.18539 9.62951C8.29735 9.56228 8.38697 9.46896 8.45419 9.34953C8.52136 9.23004 8.555 9.07697 8.555 8.89037C8.555 8.55436 8.45419 8.31168 8.25257 8.16238C8.05099 8.01303 7.79339 7.93838 7.47976 7.93838H5.69899ZM3.94055 11.175V3.17855H7.81578C8.1742 3.17855 8.52327 3.22333 8.86301 3.31294C9.20275 3.40256 9.50513 3.54066 9.77022 3.72732C10.0352 3.91397 10.2462 4.15479 10.403 4.44968C10.5598 4.74463 10.6382 5.09369 10.6382 5.49686C10.6382 5.99714 10.5169 6.42456 10.2742 6.77919C10.0315 7.13388 9.66378 7.38213 9.17097 7.524C9.52938 7.6957 9.80009 7.91599 9.98304 8.18477C10.1659 8.45356 10.2574 8.78951 10.2574 9.19274C10.2574 9.56605 10.1958 9.87962 10.0726 10.1335C9.9494 10.3873 9.77579 10.5908 9.55177 10.7439C9.32781 10.8969 9.05901 11.0071 8.74538 11.0742C8.4318 11.1415 8.08458 11.175 7.70377 11.175H3.94055ZM5.69899 4.54492V6.74004H7.61416C7.99496 6.74004 8.30111 6.65233 8.53261 6.47682C8.76406 6.30136 8.87983 6.00833 8.87983 5.59767C8.87983 5.38858 8.84433 5.21688 8.77339 5.08249C8.70245 4.9481 8.60727 4.84167 8.48778 4.7633C8.36834 4.68488 8.23017 4.62891 8.07338 4.59527C7.91654 4.56174 7.75232 4.54492 7.58057 4.54492H5.69899Z" fill="white"/>
</svg>
