<svg width="33" height="33" viewBox="0 0 33 33" fill="none" xmlns="http://www.w3.org/2000/svg">
<path d="M19.7211 16.7912C19.1049 16.5884 18.2178 16.632 17.0599 16.632H12.408V22.704H17.3828C18.16 22.704 18.706 22.6208 19.0204 22.5628C19.5745 22.4635 20.0379 22.2713 20.4101 22.0395C20.7821 21.8082 21.0881 21.4574 21.3283 21.0149C21.568 20.5725 21.6881 20.0548 21.6881 19.4758C21.6881 18.7979 21.5144 18.2772 21.1667 17.7767C20.8193 17.2762 20.3375 16.9939 19.7211 16.7912ZM19.0824 14.015C19.6941 13.8333 20.1553 13.516 20.4655 13.0944C20.776 12.6725 20.931 12.1358 20.931 11.4988C20.931 10.8953 20.786 10.3599 20.4964 9.90053C20.2068 9.44117 19.7937 9.2635 19.2559 9.09374C18.7181 8.92452 17.796 8.976 16.4892 8.976H12.408V14.256H16.787C17.8541 14.256 18.6189 14.1557 19.0824 14.015ZM33 4.389C33 1.96495 31.035 0 28.611 0H4.389C1.96495 0 0 1.96495 0 4.389V28.611C0 31.035 1.96495 33 4.389 33H28.611C31.035 33 33 31.035 33 28.611V4.389ZM23.642 21.8447C23.2824 22.5768 22.8376 23.1412 22.3083 23.5382C21.7787 23.9353 21.1147 24.2722 20.3166 24.4749C19.5188 24.6779 18.5405 24.816 17.3828 24.816H10.032V6.6H17.2709C18.6606 6.6 19.7749 6.76078 20.6144 7.12853C21.4542 7.49681 22.1116 8.05174 22.5876 8.81681C23.063 9.58188 23.3009 10.3763 23.3009 11.2116C23.3009 11.989 23.0897 12.7185 22.6681 13.4049C22.2462 14.0918 21.6092 14.6441 20.7575 15.066C21.8574 15.3886 22.7032 15.9382 23.2946 16.7154C23.8859 17.4929 24.1816 18.4108 24.1816 19.4695C24.1816 20.3214 24.0018 21.1129 23.642 21.8447Z" fill="#5B4282"/>
</svg>
