<svg width="33" height="33" viewBox="0 0 33 33" fill="none" xmlns="http://www.w3.org/2000/svg">
<path d="M11 33C14.036 33 16.5 30.536 16.5 27.5V22H11C7.964 22 5.5 24.464 5.5 27.5C5.5 30.536 7.964 33 11 33Z" fill="#0ACF83"/>
<path d="M5.5 16.5C5.5 13.464 7.964 11 11 11H16.5V22H11C7.964 22 5.5 19.536 5.5 16.5Z" fill="#A259FF"/>
<path d="M5.5 5.5C5.5 2.464 7.964 0 11 0H16.5V11H11C7.964 11 5.5 8.536 5.5 5.5Z" fill="#F24E1E"/>
<path d="M16.5 0H22C25.036 0 27.5 2.464 27.5 5.5C27.5 8.536 25.036 11 22 11H16.5V0Z" fill="#FF7262"/>
<path d="M27.5 16.5C27.5 19.536 25.036 22 22 22C18.964 22 16.5 19.536 16.5 16.5C16.5 13.464 18.964 11 22 11C25.036 11 27.5 13.464 27.5 16.5Z" fill="#1ABCFE"/>
</svg>
