<svg width="9" height="13" viewBox="0 0 9 13" fill="none" xmlns="http://www.w3.org/2000/svg">
<path d="M2.72916 12.2381C3.78986 12.2381 4.65071 11.377 4.65071 10.3162V8.39429H2.72916C1.66847 8.39429 0.807617 9.25529 0.807617 10.3162C0.807617 11.377 1.66847 12.2381 2.72916 12.2381Z" fill="#0ACF83"/>
<path d="M0.807617 6.47357C0.807617 5.41273 1.66847 4.55176 2.72916 4.55176H4.65071V8.39539H2.72916C1.66847 8.39539 0.807617 7.53442 0.807617 6.47357Z" fill="#A259FF"/>
<path d="M0.808411 2.62912C0.808411 1.56812 1.66926 0.707031 2.72996 0.707031H4.6515V4.5512H2.72996C1.66926 4.5512 0.808411 3.69011 0.808411 2.62912Z" fill="#F24E1E"/>
<path d="M4.6507 0.707031H6.57226C7.63296 0.707031 8.49382 1.56806 8.49382 2.62898C8.49382 3.6899 7.63296 4.55093 6.57226 4.55093H4.6507V0.707031Z" fill="#FF7262"/>
<path d="M8.49382 6.47357C8.49382 7.53442 7.63296 8.39539 6.57226 8.39539C5.51156 8.39539 4.6507 7.53442 4.6507 6.47357C4.6507 5.41273 5.51156 4.55176 6.57226 4.55176C7.63296 4.55176 8.49382 5.41273 8.49382 6.47357Z" fill="#1ABCFE"/>
</svg>
