<svg width="33" height="33" viewBox="0 0 33 33" fill="none" xmlns="http://www.w3.org/2000/svg">
<path d="M28.05 0H4.95C3.63762 0.00143252 2.3794 0.523409 1.4514 1.4514C0.523409 2.3794 0.00143252 3.63762 0 4.95V28.05C0.00143252 29.3624 0.523409 30.6206 1.4514 31.5486C2.3794 32.4766 3.63762 32.9986 4.95 33H28.05C29.3624 32.9986 30.6206 32.4766 31.5486 31.5486C32.4766 30.6206 32.9986 29.3624 33 28.05V4.95C32.9986 3.63762 32.4766 2.3794 31.5486 1.4514C30.6206 0.523409 29.3624 0.00143252 28.05 0ZM24.75 9.9C22.0124 9.9 20.0369 13.4925 17.9454 17.2952C15.4833 21.7715 12.9374 26.4 8.25 26.4C7.81239 26.4 7.39271 26.2262 7.08327 25.9167C6.77384 25.6073 6.6 25.1876 6.6 24.75C6.6 24.3124 6.77384 23.8927 7.08327 23.5833C7.39271 23.2738 7.81239 23.1 8.25 23.1C10.9876 23.1 12.9631 19.5075 15.0546 15.7048C17.5167 11.2285 20.0626 6.6 24.75 6.6C25.1876 6.6 25.6073 6.77384 25.9167 7.08327C26.2262 7.39271 26.4 7.81239 26.4 8.25C26.4 8.68761 26.2262 9.10729 25.9167 9.41673C25.6073 9.72616 25.1876 9.9 24.75 9.9Z" fill="#6563FF"/>
</svg>
