<svg width="39" height="27" viewBox="0 0 39 27" fill="none" xmlns="http://www.w3.org/2000/svg">
<path d="M8.5493 9.90141C7.34556 9.90141 6.20081 10.1536 5.16207 10.6042C6.61288 7.36997 8.85622 4.63334 11.4672 3.21245C12.2965 2.76105 12.6034 1.72316 12.152 0.893025C11.7006 0.0637438 10.6627 -0.243176 9.83255 0.208226C4.1353 3.3082 0 10.9803 0 18.4507C0 23.1648 3.83522 27 8.5493 27C13.2634 27 17.0986 23.1648 17.0986 18.4507C17.0986 13.7366 13.2642 9.90141 8.5493 9.90141Z" fill="#454545" fill-opacity="0.6"/>
<path d="M29.9234 9.90248C28.7205 9.90248 27.5757 10.1547 26.5353 10.6061C27.9861 7.37112 30.2294 4.63459 32.8412 3.21374C33.6705 2.76235 33.9774 1.72451 33.526 0.894397C33.0755 0.0659984 32.0376 -0.240911 31.2066 0.209621C25.5094 3.30949 21.3741 10.9814 21.3741 18.4515C21.3741 23.1654 25.2093 27.0005 29.9234 27.0005C34.6374 27.0005 38.4727 23.1654 38.4727 18.4515C38.4727 13.7376 34.6374 9.90248 29.9234 9.90248Z" fill="#454545" fill-opacity="0.6"/>
</svg>
