<svg width="45" height="34" viewBox="0 0 45 34" fill="none" xmlns="http://www.w3.org/2000/svg">
<g clip-path="url(#clip0_35_102)">
<path d="M38.7245 19.5325C37.1513 19.5414 35.789 19.922 34.6464 20.4888C34.2245 19.6476 33.8026 18.9127 33.7324 18.3638C33.6533 17.7263 33.5566 17.3366 33.6533 16.5753C33.7499 15.8137 34.1894 14.7335 34.1894 14.645C34.1805 14.5653 34.0926 14.1757 33.1874 14.1668C32.2822 14.158 31.4999 14.3439 31.412 14.583C31.3241 14.822 31.1483 15.371 31.0341 15.9377C30.8759 16.77 29.2235 19.7184 28.2831 21.2679C27.9755 20.6658 27.7118 20.1345 27.659 19.7095C27.58 19.072 27.4832 18.6824 27.58 17.921C27.6767 17.1595 28.1161 16.0793 28.1161 15.9908C28.1073 15.9111 28.0194 15.5215 27.1142 15.5127C26.2089 15.5038 25.4267 15.6898 25.3389 15.9288C25.251 16.1679 25.1543 16.7345 24.9609 17.2835C24.7763 17.8325 22.579 22.7554 22.0077 24.0392C21.7177 24.6944 21.4629 25.2168 21.2782 25.571C21.0937 25.9252 21.2694 25.5976 21.2519 25.633C21.0937 25.934 21.0058 26.1022 21.0058 26.1022V26.1112C20.8827 26.3325 20.7509 26.545 20.6893 26.545C20.6453 26.545 20.5574 25.9517 20.7068 25.1372C21.032 23.4283 21.8231 20.7633 21.8144 20.6659C21.8144 20.6216 21.9637 20.1522 21.3045 19.9133C20.6629 19.6742 20.4345 20.0726 20.3817 20.0726C20.3289 20.0726 20.285 20.2143 20.285 20.2143C20.285 20.2143 20.9969 17.2128 18.9227 17.2128C17.6219 17.2128 15.8289 18.6384 14.9412 19.9399C14.3787 20.2498 13.1834 20.9049 11.9178 21.6045C11.4344 21.8701 10.9334 22.1535 10.4588 22.4102L10.3622 22.3038C7.84854 19.6033 3.19913 17.6908 3.39249 14.0606C3.4628 12.7413 3.91983 9.26163 12.3223 5.04705C19.2041 1.59393 24.7148 2.54132 25.6728 4.64861C27.0351 7.65903 22.7284 13.2549 15.5742 14.0606C12.8496 14.3705 11.4169 13.308 11.0566 12.9095C10.6787 12.4934 10.626 12.4757 10.4853 12.5554C10.2568 12.6793 10.3975 13.0512 10.4853 13.2726C10.6963 13.8304 11.5752 14.822 13.0693 15.3179C14.3788 15.7517 17.5781 15.9908 21.4453 14.4856C25.7783 12.7944 29.1621 8.10174 28.1689 4.17934C27.1582 0.186118 20.584 -1.1243 14.3701 1.0981C10.6698 2.42622 6.66202 4.49809 3.77921 7.21632C0.351474 10.4392 -0.193447 13.2549 0.0350682 14.4236C0.83496 18.5939 6.53897 21.3121 8.82413 23.322C8.70987 23.3839 8.6044 23.4459 8.50772 23.4991C7.36514 24.0657 3.01456 26.359 1.92472 28.785C0.694248 31.5298 2.11808 33.5043 3.06729 33.7699C6.00284 34.5934 9.0087 33.1147 10.6347 30.6798C12.2518 28.245 12.0585 25.084 11.3114 23.6408L11.285 23.5877L12.1815 23.0564C12.7616 22.7111 13.3329 22.3923 13.8338 22.1178C13.5526 22.8881 13.3504 23.8001 13.245 25.1282C13.122 26.6866 13.7548 28.7053 14.5897 29.5022C14.9589 29.8474 15.3983 29.8563 15.6708 29.8563C16.6376 29.8563 17.0771 29.0505 17.5605 28.0855C18.1581 26.9079 18.6855 25.5443 18.6855 25.5443C18.6855 25.5443 18.0263 29.2365 19.828 29.2365C20.4872 29.2365 21.1464 28.3777 21.4452 27.935V27.9438C21.4452 27.9438 21.4628 27.9173 21.4979 27.8553C21.5348 27.8003 21.57 27.7443 21.6034 27.6871V27.6694C21.8671 27.209 22.456 26.1554 23.3349 24.4111C24.4686 22.1621 25.5585 19.3465 25.5585 19.3465C25.5585 19.3465 25.664 20.0371 25.9892 21.1705C26.1824 21.8435 26.6043 22.5783 26.9295 23.2955C26.6658 23.6674 26.5076 23.8799 26.5076 23.8799L26.5164 23.8888C26.3056 24.1721 26.0682 24.4733 25.8222 24.7742C24.9257 25.8544 23.8534 27.0852 23.7128 27.4394C23.5458 27.8555 23.581 28.1654 23.9062 28.4134C24.1435 28.5904 24.5653 28.6258 25.0136 28.5904C25.8222 28.5372 26.3847 28.3337 26.6659 28.2096C27.1054 28.0502 27.6063 27.8112 28.0897 27.457C28.9687 26.8019 29.5048 25.8722 29.452 24.6326C29.4257 23.9509 29.206 23.2779 28.9335 22.6404C29.0126 22.5253 29.0918 22.4101 29.1708 22.2863C30.5595 20.2409 31.6317 17.992 31.6317 17.992C31.6317 17.992 31.7372 18.6826 32.0624 19.816C32.2293 20.3915 32.5634 21.0202 32.8622 21.64C31.5614 22.7114 30.744 23.9509 30.4628 24.7655C29.9442 26.2707 30.3485 26.9525 31.1132 27.1119C31.4559 27.1827 31.9481 27.0233 32.3172 26.864C32.7742 26.7134 33.3279 26.4566 33.8378 26.0759C34.7167 25.4207 35.5604 24.5088 35.5165 23.278C35.4901 22.7114 35.3407 22.1536 35.1386 21.6223C36.246 21.1619 37.6785 20.8963 39.4979 21.1176C43.4091 21.578 44.1825 24.0395 44.0332 25.0666C43.8838 26.0937 43.0664 26.6603 42.7938 26.8374C42.5214 27.0056 42.4335 27.0677 42.4599 27.1916C42.495 27.3776 42.6181 27.3687 42.8554 27.3333C43.1806 27.2801 44.912 26.4922 44.9823 24.5975C45.0878 22.1622 42.7938 19.506 38.7245 19.5325ZM8.56046 29.7767C7.26846 31.2022 5.44913 31.7423 4.67569 31.2819C3.84073 30.7949 4.16584 28.6965 5.75675 27.1825C6.72354 26.2616 7.98038 25.4116 8.80655 24.8892C8.99112 24.7741 9.27237 24.606 9.60635 24.4022C9.65909 24.3669 9.69424 24.3491 9.69424 24.3491C9.75577 24.3137 9.82608 24.2694 9.89639 24.2252C10.4853 26.3856 9.92276 28.2804 8.56046 29.7767ZM18.0087 23.3043C17.5605 24.4111 16.6112 27.2533 16.0399 27.0939C15.5477 26.9611 15.2489 24.8095 15.9432 22.6845C16.2947 21.6131 17.0418 20.3382 17.4813 19.8423C18.1933 19.0454 18.9666 18.7798 19.1601 19.1074C19.3886 19.5325 18.2899 22.6137 18.0087 23.3043ZM25.8046 27.0585C25.6112 27.156 25.4354 27.2267 25.3563 27.1737C25.2948 27.1383 25.4354 27.0055 25.4354 27.0055C25.4354 27.0055 26.4109 25.9518 26.7977 25.4648C27.0174 25.1816 27.2811 24.854 27.5623 24.482V24.5883C27.5624 25.8632 26.3495 26.7132 25.8046 27.0585ZM31.8162 25.6772C31.6756 25.571 31.6933 25.2434 32.1678 24.2163C32.3524 23.809 32.7742 23.1272 33.5037 22.4809C33.5916 22.7465 33.6444 23.0032 33.6356 23.2423C33.6269 24.8361 32.5019 25.4293 31.8162 25.6772Z" fill="#CF649A"/>
</g>
<defs>
<clipPath id="clip0_35_102">
<rect width="45" height="34" fill="white"/>
</clipPath>
</defs>
</svg>
