<svg width="17" height="16" viewBox="0 0 17 16" fill="none" xmlns="http://www.w3.org/2000/svg">
<path d="M13.3902 11.5124L16.7637 14.885L15.6492 15.9995L12.2765 12.6261C11.0216 13.6321 9.46073 14.1792 7.85238 14.1769C3.93941 14.1769 0.763672 11.0012 0.763672 7.08822C0.763672 3.17525 3.93941 -0.000488281 7.85238 -0.000488281C11.7653 -0.000488281 14.9411 3.17525 14.9411 7.08822C14.9434 8.69657 14.3962 10.2575 13.3902 11.5124ZM11.8102 10.9279C12.8098 9.89998 13.3681 8.52205 13.3658 7.08822C13.3658 4.04165 10.8982 1.57478 7.85238 1.57478C4.80581 1.57478 2.33894 4.04165 2.33894 7.08822C2.33894 10.134 4.80581 12.6017 7.85238 12.6017C9.28621 12.6039 10.6641 12.0457 11.6921 11.0461L11.8102 10.9279Z" fill="#2763FE"/>
</svg>
