<svg width="37" height="34" viewBox="0 0 37 34" fill="none" xmlns="http://www.w3.org/2000/svg">
<path d="M8.07328 1.09484L18.5 0L28.9267 1.09484L37 11.843L18.5 33.2151L0 11.843L8.07328 1.09484Z" fill="#FDB300"/>
<path d="M7.49402 11.8428L18.5 33.2148L0 11.8428H7.49402Z" fill="#EA6C00"/>
<path d="M29.506 11.8428L18.5 33.2148L37 11.8428H29.506Z" fill="#EA6C00"/>
<path d="M7.4939 11.8428H29.5059L18.4999 33.2148L7.4939 11.8428Z" fill="#FDAD00"/>
<path d="M18.4999 0L8.07316 1.09484L7.4939 11.843L18.4999 0Z" fill="#FDD231"/>
<path d="M18.5 0L28.9267 1.09484L29.506 11.843L18.5 0Z" fill="#FDD231"/>
<path d="M37 11.8429L28.9268 1.09473L29.506 11.8429H37Z" fill="#FDAD00"/>
<path d="M18.4999 0L7.4939 11.843H29.5059L18.4999 0Z" fill="#FEEEB7"/>
<path d="M0 11.8429L8.07328 1.09473L7.49402 11.8429H0Z" fill="#FDAD00"/>
</svg>
