<svg width="19" height="20" viewBox="0 0 19 20" fill="none" xmlns="http://www.w3.org/2000/svg">
<path d="M10.8823 18.3665C9.48699 18.5845 8.05997 18.4699 6.71735 18.032C5.37474 17.5942 4.15448 16.8455 3.1559 15.8469C2.15733 14.8482 1.40866 13.6279 0.970841 12.2852C0.53302 10.9425 0.418421 9.51542 0.636372 8.12007C0.086335 7.0738 -0.114654 5.87902 0.06278 4.71036C0.240214 3.54171 0.78677 2.46044 1.62256 1.6246C2.45835 0.788766 3.53956 0.242181 4.70815 0.0647365C5.87675 -0.112707 7.07146 0.0882929 8.11767 0.63836C9.51295 0.420397 10.94 0.535003 12.2826 0.972847C13.6252 1.41069 14.8455 2.1594 15.844 3.15803C16.8426 4.15666 17.5913 5.37698 18.0291 6.71967C18.4669 8.06236 18.5815 9.48946 18.3636 10.8848C18.9136 11.9311 19.1146 13.1259 18.9372 14.2945C18.7597 15.4632 18.2132 16.5444 17.3774 17.3803C16.5416 18.2161 15.4604 18.7627 14.2918 18.9401C13.1232 19.1176 11.9285 18.9166 10.8823 18.3665ZM9.55484 14.9433H9.51263C12.5431 14.9433 14.0531 13.4807 14.0531 11.5211C14.0531 10.2569 13.4717 8.91361 11.1767 8.39971L9.08422 7.9354C8.28756 7.7539 7.37271 7.5133 7.37271 6.7588C7.37271 6.00429 8.02692 5.47878 9.19185 5.47878C11.5449 5.47878 11.3307 7.0912 12.4957 7.0912C13.1034 7.0912 13.649 6.73031 13.649 6.10982C13.649 4.66413 11.3307 3.57723 9.36913 3.57723C7.23659 3.57723 4.96582 4.48368 4.96582 6.89492C4.96582 8.05359 5.38156 9.29034 7.6671 9.86334L10.5045 10.5714C11.3655 10.7846 11.5787 11.2668 11.5787 11.7026C11.5787 12.4276 10.8569 13.1357 9.55484 13.1357C7.00444 13.1357 7.36215 11.1761 5.99463 11.1761C5.38262 11.1761 4.93627 11.5961 4.93627 12.2007C4.93627 13.3763 6.36289 14.9422 9.55484 14.9422V14.9433Z" fill="white"/>
</svg>
