<svg width="18" height="17" viewBox="0 0 18 17" fill="none" xmlns="http://www.w3.org/2000/svg">
<path d="M10.3117 8.65001C9.99426 8.54556 9.5373 8.568 8.9408 8.568H6.54434V11.696H9.10713C9.50751 11.696 9.78876 11.6532 9.95074 11.6232C10.2362 11.5721 10.4749 11.4731 10.6666 11.3537C10.8583 11.2346 11.0159 11.0538 11.1396 10.8259C11.2631 10.5979 11.325 10.3312 11.325 10.033C11.325 9.68375 11.2355 9.41555 11.0564 9.1577C10.8774 8.89984 10.6292 8.75446 10.3117 8.65001ZM9.9827 7.21983C10.2978 7.12626 10.5354 6.96279 10.6952 6.7456C10.8551 6.52827 10.935 6.25178 10.935 5.92362C10.935 5.61272 10.8603 5.33691 10.7111 5.10027C10.5619 4.86363 10.3491 4.7721 10.072 4.68466C9.79502 4.59748 9.31997 4.624 8.64677 4.624H6.54434V7.344H8.80018C9.34989 7.344 9.74388 7.29232 9.9827 7.21983ZM17.1523 2.261C17.1523 1.01225 16.1401 0 14.8913 0H2.41334C1.16459 0 0.152344 1.01225 0.152344 2.261V14.739C0.152344 15.9878 1.16459 17 2.41334 17H14.8913C16.1401 17 17.1523 15.9878 17.1523 14.739V2.261ZM12.3316 11.2533C12.1463 11.6304 11.9172 11.9212 11.6445 12.1258C11.3717 12.3303 11.0296 12.5038 10.6185 12.6083C10.2075 12.7129 9.70349 12.784 9.10713 12.784H5.32034V3.4H9.04946C9.76537 3.4 10.3394 3.48282 10.7719 3.67227C11.2045 3.86199 11.5432 4.14786 11.7884 4.54199C12.0333 4.93612 12.1558 5.34534 12.1558 5.77565C12.1558 6.17617 12.047 6.55194 11.8298 6.90554C11.6125 7.25941 11.2844 7.54392 10.8456 7.76125C11.4122 7.92744 11.8479 8.21059 12.1526 8.61098C12.4572 9.0115 12.6095 9.48437 12.6095 10.0297C12.6095 10.4686 12.5169 10.8763 12.3316 11.2533Z" fill="#5B4282"/>
</svg>
