<svg width="33" height="33" viewBox="0 0 33 33" fill="none" xmlns="http://www.w3.org/2000/svg">
<path d="M16.5003 0C7.38716 0 0 7.38716 0 16.5003C0 25.6135 7.38716 33 16.5003 33C25.6128 33 33.0007 25.6128 33.0007 16.5003C33.0007 7.38784 25.6135 0 16.5003 0ZM8.92643 24.9484C8.37458 25.5003 7.70483 25.7764 6.91591 25.7764C6.12753 25.7764 5.46385 25.5222 4.92493 25.0142C4.38603 24.5065 4.09927 23.8663 4.06409 23.0957H5.75932C5.76804 23.4467 5.87957 23.7287 6.09418 23.9435C6.3088 24.1581 6.59556 24.2652 6.95503 24.2652C7.30549 24.2652 7.5904 24.1624 7.80924 23.9562C8.02835 23.7503 8.13777 23.4858 8.13777 23.1615C8.13777 22.5916 7.7437 22.1624 6.95506 21.8736C6.32445 21.6457 5.90605 21.4795 5.69989 21.374C5.494 21.2688 5.29948 21.1243 5.11553 20.9403C4.62447 20.4588 4.37918 19.8676 4.37918 19.1658C4.37918 18.4828 4.63106 17.8961 5.13509 17.4048C5.63884 16.9148 6.2412 16.669 6.94209 16.669C7.6599 16.669 8.26282 16.9058 8.7491 17.3789C9.23514 17.8512 9.50047 18.4477 9.54411 19.1655H7.86187C7.80927 18.5085 7.48973 18.18 6.90271 18.18C6.63075 18.18 6.41165 18.2614 6.24567 18.4234C6.0789 18.5854 5.99591 18.8024 5.99591 19.0741C5.99591 19.363 6.09211 19.5863 6.28505 19.7441C6.47773 19.9019 6.87206 20.0858 7.46755 20.2959C8.15105 20.533 8.65025 20.7997 8.96562 21.0976C9.49183 21.5884 9.75454 22.2018 9.75454 22.9376C9.7548 23.7257 9.47835 24.3963 8.92651 24.9484L8.92643 24.9484ZM14.8142 25.6055H13.4869L10.0701 16.8401H11.7783L14.144 23.5025L16.5097 16.8401H18.2044L14.8142 25.6055ZM27.8903 21.3344C27.8903 22.5433 27.432 23.5859 26.5167 24.4621C25.6015 25.3383 24.5128 25.7765 23.2513 25.7765C21.9456 25.7765 20.8327 25.3341 19.9132 24.4492C18.9934 23.5643 18.5333 22.4911 18.5333 21.2295C18.5333 19.9767 18.9937 18.9032 19.9132 18.0101C20.833 17.1157 21.9327 16.6693 23.2116 16.6693C24.1404 16.6693 25.0102 16.9321 25.8203 17.458C26.6304 17.9837 27.1721 18.6365 27.4433 19.416H25.5116C24.9682 18.5929 24.1885 18.1803 23.1723 18.1803C22.3312 18.1803 21.6193 18.4764 21.0368 19.0676C20.4543 19.6591 20.1633 20.3843 20.1633 21.2427C20.1633 22.1014 20.459 22.8198 21.0502 23.3978C21.642 23.9761 22.3752 24.2655 23.2516 24.2655C23.8119 24.2655 24.3225 24.1236 24.7826 23.8384C25.2425 23.5535 25.5948 23.1618 25.8398 22.662H22.1737V21.151H27.8902L27.8905 21.3344L27.8903 21.3344ZM16.9056 2.20072C24.6216 2.41585 30.8105 8.73339 30.8105 16.5001C30.8105 16.5352 30.8081 16.5701 30.8073 16.6055C23.4939 15.5005 17.7577 9.59455 16.9058 2.20062L16.9056 2.20072Z" fill="#2763FE"/>
</svg>
