<svg width="55" height="33" viewBox="0 0 55 33" fill="none" xmlns="http://www.w3.org/2000/svg">
<path d="M27.5001 0C20.1695 0 15.588 3.66674 13.7552 10.9995C16.5045 7.3328 19.7116 5.95828 23.3766 6.87463C25.4679 7.39746 26.9625 8.91576 28.6173 10.5957C31.3122 13.3324 34.4314 16.4997 41.245 16.4997C48.575 16.4997 53.1571 12.8329 54.9893 5.49943C52.2407 9.16617 49.0336 10.5414 45.3679 9.62503C43.2772 9.10219 41.7826 7.5839 40.1279 5.90394C37.4329 3.16729 34.3131 0 27.5001 0ZM13.7552 16.4997C6.42523 16.4997 1.84314 20.1664 0.0109863 27.4999C2.75956 23.8331 5.96668 22.4579 9.63236 23.375C11.723 23.8985 13.2176 25.4161 14.8724 27.0954C17.5673 29.832 20.6871 33 27.5001 33C34.8308 33 39.4122 29.3333 41.245 21.9998C38.4958 25.6665 35.2887 27.0417 31.6237 26.1247C29.5323 25.6025 28.0377 24.0835 26.383 22.4043C23.688 19.6676 20.5689 16.4997 13.7552 16.4997Z" fill="#06B6D4"/>
</svg>
