<svg width="33" height="33" viewBox="0 0 33 33" fill="none" xmlns="http://www.w3.org/2000/svg">
<path d="M16.5002 6.68462e-10C13.2367 -2.9368e-05 10.0466 0.967668 7.33315 2.78072C4.6197 4.59377 2.50484 7.17074 1.25598 10.1857C0.00713211 13.2008 -0.319612 16.5184 0.317073 19.7191C0.953758 22.9198 2.52527 25.8598 4.83289 28.1674C7.14051 30.475 10.0806 32.0464 13.2813 32.683C16.482 33.3196 19.7997 32.9928 22.8146 31.7439C25.8296 30.4949 28.4065 28.38 30.2195 25.6665C32.0325 22.953 33.0001 19.7629 33 16.4994C32.995 12.125 31.255 7.93111 28.1618 4.83794C25.0685 1.74476 20.8746 0.00487798 16.5002 6.68462e-10ZM1.6656 16.4994C1.66396 14.419 2.10165 12.3617 2.95002 10.4621L10.0265 29.8504C7.51988 28.6345 5.40627 26.7375 3.92762 24.3763C2.44898 22.0152 1.66506 19.2854 1.6656 16.4994ZM16.5002 31.3352C15.0814 31.3352 13.6701 31.1317 12.3092 30.7308L16.7607 17.797L21.3201 30.2897C21.3498 30.3606 21.3854 30.429 21.4264 30.4941C19.8439 31.0516 18.178 31.3361 16.5002 31.3352ZM18.5445 9.54411C19.4376 9.49718 20.2424 9.40321 20.2424 9.40321C20.4028 9.3884 20.5509 9.31108 20.6547 9.18797C20.7586 9.06486 20.8098 8.90583 20.7974 8.74525C20.785 8.58467 20.7099 8.43543 20.5883 8.32977C20.4667 8.22411 20.3085 8.17052 20.1477 8.18058C20.1477 8.18058 17.7449 8.3692 16.1936 8.3692C14.7362 8.3692 12.2867 8.18058 12.2867 8.18058C12.1262 8.17101 11.9684 8.22488 11.8472 8.33058C11.726 8.43628 11.6512 8.58535 11.6389 8.74568C11.6265 8.906 11.6777 9.06476 11.7813 9.18775C11.8849 9.31073 12.0326 9.38811 12.1927 9.40321C12.1927 9.40321 12.9492 9.49718 13.7486 9.54411L16.0599 15.8767L12.8127 25.6131L7.41093 9.54411C8.30461 9.49718 9.10865 9.40321 9.10865 9.40321C9.26891 9.38822 9.41685 9.31083 9.52055 9.18773C9.62424 9.06462 9.67539 8.90569 9.66294 8.74521C9.65049 8.58473 9.57544 8.43559 9.454 8.32995C9.33255 8.22432 9.17444 8.17067 9.01379 8.18058C9.01379 8.18058 6.61153 8.3692 5.06023 8.3692C4.78188 8.3692 4.45356 8.36234 4.10553 8.35117C5.28496 6.5562 6.8402 5.03883 8.66369 3.90399C10.4872 2.76915 12.5354 2.04393 14.6667 1.77847C16.798 1.51302 18.9616 1.71366 21.0077 2.36653C23.0539 3.0194 24.9338 4.10892 26.5175 5.55974C26.4536 5.55581 26.3912 5.54784 26.3255 5.54784C25.6465 5.56807 25.0032 5.85645 24.5363 6.34987C24.0694 6.84329 23.817 7.50157 23.8343 8.18064C23.9899 9.45262 24.4942 10.6568 25.2916 11.66C26.0712 12.8837 26.4946 14.3003 26.5146 15.7512C26.3604 17.394 25.9806 19.0078 25.3858 20.5469L23.9058 25.4908L18.5445 9.54411ZM23.9581 29.3219L28.4891 16.2215C29.2082 14.5409 29.5915 12.7359 29.6172 10.9081C29.6181 10.3979 29.5848 9.88827 29.5175 9.38257C31.3714 12.7753 31.8277 16.7577 30.7893 20.4819C29.751 24.206 27.3 27.3778 23.9581 29.3219Z" fill="#6563FF"/>
</svg>
