<svg width="14" height="14" viewBox="0 0 14 14" fill="none" xmlns="http://www.w3.org/2000/svg">
<path d="M2.48192 0.605469H11.1695C12.4866 0.605469 13.5515 1.67038 13.5515 2.98751V11.3387C13.5515 12.6558 12.4866 13.7207 11.1695 13.7207H2.48192C1.16478 13.7207 0.0998535 12.6558 0.0998535 11.3387V2.98751C0.0998535 1.67038 1.16478 0.605469 2.48192 0.605469Z" fill="#470137"/>
<path d="M7.1732 4.05302L5.49175 6.82736L7.2853 9.76983C7.29651 9.79225 7.30211 9.81467 7.29651 9.83709C7.2909 9.85951 7.26848 9.84269 7.23485 9.8483H5.95135C5.86167 9.8483 5.80001 9.84269 5.76078 9.78665C5.64308 9.55125 5.51977 9.32145 5.40207 9.08606C5.28437 8.85626 5.15546 8.62086 5.02094 8.37986C4.88643 8.13886 4.75191 7.89786 4.61739 7.65125H4.60618C4.48848 7.89225 4.35957 8.13326 4.23066 8.37426C4.10175 8.61526 3.97284 8.85626 3.84953 9.09166C3.72062 9.32706 3.59171 9.56806 3.4628 9.79786C3.44038 9.8539 3.39554 9.85951 3.33388 9.85951H2.10082C2.0784 9.85951 2.06159 9.87072 2.06159 9.84269C2.05598 9.82027 2.06159 9.79786 2.0728 9.78104L3.8159 6.92264L2.11763 4.04742C2.10082 4.025 2.09522 4.00258 2.10642 3.99137C2.11763 3.97456 2.14005 3.96895 2.16247 3.96895H3.43477C3.4628 3.96895 3.49082 3.97455 3.51324 3.98016C3.53566 3.99137 3.55247 4.00818 3.56929 4.0306C3.67578 4.2716 3.79909 4.51261 3.928 4.75361C4.06251 4.99461 4.19143 5.23001 4.33155 5.46541C4.46606 5.70081 4.58937 5.93621 4.70707 6.17721H4.71828C4.83598 5.9306 4.95929 5.6896 5.0826 5.4542C5.2059 5.2188 5.33481 4.9834 5.46372 4.74801C5.59264 4.51261 5.71594 4.2716 5.83925 4.04181C5.84485 4.01939 5.85606 3.99697 5.87288 3.98576C5.8953 3.97455 5.91772 3.96895 5.94574 3.97455H7.12836C7.15639 3.96895 7.18441 3.98576 7.19002 4.01379C7.19562 4.01939 7.18441 4.04181 7.1732 4.05302ZM9.76264 9.966C9.34788 9.9716 8.93312 9.88753 8.5576 9.71378C8.20449 9.55125 7.91304 9.28222 7.71127 8.95154C7.50389 8.60966 7.403 8.1837 7.403 7.67367C7.39739 7.25892 7.50389 6.84977 7.71127 6.49107C7.92425 6.12677 8.23252 5.82411 8.60244 5.62234C8.99477 5.40376 9.46558 5.29727 10.0205 5.29727C10.0485 5.29727 10.0877 5.29727 10.1382 5.30287C10.1886 5.30848 10.2447 5.30848 10.3119 5.31408V3.54299C10.3119 3.50376 10.3287 3.48134 10.368 3.48134H11.5057C11.5338 3.47574 11.5562 3.49815 11.5618 3.52057V8.86747C11.5618 8.96836 11.5674 9.08045 11.573 9.20375C11.5842 9.32145 11.5898 9.43355 11.5954 9.52883C11.5954 9.56806 11.5786 9.60169 11.5394 9.6185C11.2479 9.74181 10.9397 9.83148 10.6258 9.88753C10.3399 9.93797 10.0541 9.966 9.76264 9.966ZM10.3119 8.84505V6.37898C10.2615 6.36777 10.211 6.35656 10.1606 6.35095C10.0989 6.34535 10.0373 6.33975 9.97562 6.33975C9.75703 6.33975 9.53844 6.38458 9.34227 6.48547C9.15171 6.58075 8.98917 6.72087 8.86586 6.90022C8.74256 7.07957 8.6809 7.32057 8.6809 7.61202C8.6753 7.80818 8.70893 8.00435 8.77619 8.1893C8.83223 8.34063 8.91631 8.47514 9.0284 8.58724C9.1349 8.68812 9.26381 8.76659 9.40953 8.81143C9.56086 8.86187 9.7178 8.88429 9.87473 8.88429C9.95881 8.88429 10.0373 8.87868 10.1101 8.87308C10.183 8.87868 10.2447 8.86747 10.3119 8.84505Z" fill="#FF61F6"/>
</svg>
