<svg width="35" height="33" viewBox="0 0 35 33" fill="none" xmlns="http://www.w3.org/2000/svg">
<path d="M28.1638 0H5.97414C2.67471 0 0 2.67471 0 5.97414V27.0259C0 30.3253 2.67471 33 5.97414 33H28.1638C31.4632 33 34.1379 30.3253 34.1379 27.0259V5.97414C34.1379 2.67471 31.4632 0 28.1638 0Z" fill="#470137"/>
<path d="M17.5485 9.33694L13.3495 16.5514L17.8742 24.2325C17.9667 24.3889 17.9269 24.4657 17.7576 24.4657H14.9355C14.8657 24.4731 14.7952 24.4593 14.7333 24.426C14.6714 24.3928 14.6209 24.3417 14.5885 24.2794L11.4037 18.4375H11.3795L8.27864 24.2794C8.25013 24.335 8.20697 24.3817 8.15382 24.4146C8.10067 24.4474 8.03956 24.4651 7.97709 24.4657H5.26312C5.10808 24.4657 5.07821 24.3889 5.17067 24.2325L9.61998 16.7619L5.38118 9.29C5.28873 9.16625 5.32002 9.10367 5.47364 9.10367H8.3014C8.36203 9.09933 8.42264 9.11242 8.47607 9.14141C8.5295 9.17039 8.57353 9.21405 8.60295 9.26724L11.59 15.0394H11.6128L14.5842 9.26724C14.6135 9.21428 14.6573 9.17077 14.7105 9.1418C14.7636 9.11283 14.8239 9.0996 14.8843 9.10367H17.4561C17.6267 9.10367 17.6566 9.1819 17.5485 9.33694ZM24.4472 24.7502C22.7972 24.7502 21.527 24.2822 20.5413 23.3477C19.5555 22.4132 19.0605 21.032 19.0605 19.2028C19.0605 17.5405 19.5906 16.175 20.6508 15.1063C21.1933 14.5448 21.8455 14.101 22.5669 13.8024C23.2883 13.5039 24.0635 13.357 24.8441 13.3709C25.1935 13.3647 25.5423 13.402 25.8824 13.4819V8.66841C25.8799 8.65038 25.8815 8.63199 25.8872 8.6147C25.8929 8.5974 25.9026 8.58167 25.9154 8.56872C25.9282 8.55577 25.9438 8.54596 25.9611 8.54006C25.9783 8.53416 25.9967 8.53232 26.0147 8.5347H28.6149C28.6874 8.5347 28.7244 8.5788 28.7244 8.66841V22.1458C28.7244 22.7147 28.9705 23.1998 29.0089 23.6151C29.0167 23.6563 29.0099 23.6988 28.9897 23.7355C28.9694 23.7721 28.937 23.8005 28.898 23.8157C27.622 24.4387 25.9493 24.7502 24.4472 24.7502ZM25.8881 22.5469V15.6667C25.7957 15.5045 25.3064 15.3623 24.8057 15.3623C24.3913 15.3515 23.9797 15.4334 23.601 15.602C23.2223 15.7706 22.8859 16.0216 22.6166 16.3366C21.9605 17.105 21.6066 18.0859 21.6209 19.0961C21.6209 20.3422 22.0476 21.1956 22.6038 21.7888C22.8667 22.0902 23.1904 22.3325 23.5538 22.4997C23.9172 22.667 24.3118 22.7553 24.7118 22.7588C25.2423 22.7588 25.7615 22.6792 25.8881 22.5469Z" fill="#FF61F6"/>
</svg>
